<svg xmlns="http://www.w3.org/2000/svg" xmlns:xlink="http://www.w3.org/1999/xlink" version="1.1" width="32" height="32" viewBox="0 0 256 256" xml:space="preserve">
<defs>
</defs>
<g style="stroke: none; stroke-width: 0; stroke-dasharray: none; stroke-linecap: butt; stroke-linejoin: miter; stroke-miterlimit: 10; fill: none; fill-rule: nonzero; opacity: 1;" transform="translate(22.611673151750978 22.61167315175095) scale(2.33 2.33)" >
	<path d="M 60.394 90.002 H 35.32 c -2.149 0 -3.912 -1.746 -3.93 -3.892 l -0.007 -0.874 c -0.012 -1.419 -0.027 -3.12 -0.04 -4.937 c -14.895 2.2 -19.076 -7.408 -19.513 -8.541 h 0 c -2.278 -5.787 -5.454 -7.447 -5.487 -7.463 L 6.09 64.147 c -1.12 -0.765 -3.741 -2.558 -3 -4.903 c 0.669 -2.112 3.422 -2.297 4.553 -2.291 l 0.114 0.005 c 6.86 0.481 10.4 6.77 10.547 7.037 c 3.84 6.579 9.715 5.793 13.424 4.386 c 0.361 -1.812 0.959 -3.458 1.762 -4.872 C 21.946 61.561 8.658 55.605 8.658 33.204 c 0 -6.118 1.926 -11.522 5.73 -16.078 c -0.843 -2.7 -1.892 -8.441 0.981 -15.727 l 0.348 -0.883 l 0.903 -0.289 c 0.583 -0.188 5.912 -1.57 16.999 5.714 c 4.514 -1.169 9.294 -1.773 14.225 -1.796 c 4.948 0.022 9.733 0.626 14.254 1.796 C 73.17 -1.343 78.496 0.041 79.08 0.228 l 0.901 0.289 l 0.349 0.881 c 2.877 7.282 1.83 13.025 0.988 15.726 c 3.798 4.544 5.722 9.948 5.722 16.08 c 0 22.406 -13.303 28.34 -24.869 30.265 c 1.426 2.496 2.207 5.712 2.207 9.29 c 0 5.203 -0.03 9.727 -0.05 12.736 l -0.004 0.608 C 64.31 88.253 62.547 90.002 60.394 90.002 z M 35.39 86.002 h 24.934 l 0.003 -0.533 c 0.02 -3.002 0.05 -7.517 0.05 -12.71 c 0 -5.829 -2.281 -8.432 -3.263 -9.281 l -3.462 -2.994 l 4.55 -0.506 c 12.282 -1.366 24.837 -5.616 24.837 -26.774 c 0 -5.519 -1.842 -10.328 -5.474 -14.295 l -0.857 -0.937 l 0.483 -1.175 c 0.398 -0.966 2.167 -5.929 -0.168 -12.802 C 75.322 4.04 70.976 4.75 63.578 9.764 l -0.766 0.519 l -0.891 -0.247 c -4.377 -1.214 -9.246 -1.867 -14.077 -1.889 c -4.814 0.022 -9.677 0.675 -14.046 1.889 l -0.891 0.248 l -0.766 -0.519 c -7.371 -4.991 -11.717 -5.718 -13.468 -5.76 c -2.326 6.871 -0.557 11.826 -0.159 12.791 l 0.484 1.174 l -0.856 0.938 c -3.638 3.983 -5.483 8.793 -5.483 14.297 c 0 21.148 12.528 25.425 24.784 26.82 l 4.505 0.513 l -3.415 2.982 c -0.902 0.787 -2.497 2.688 -3.035 6.563 l -0.152 1.098 l -1.011 0.452 c -3.016 1.35 -13.329 4.928 -19.508 -5.662 c -0.042 -0.073 -2.133 -3.725 -5.872 -4.765 c 1.476 0.993 4.416 3.542 6.598 9.089 l 0.039 0.107 c 0.118 0.337 3.196 8.616 17.313 5.548 l 2.412 -0.524 l 0.013 2.468 c 0.014 2.687 0.037 5.286 0.054 7.31 L 35.39 86.002 z" style="stroke: none; stroke-width: 1; stroke-dasharray: none; stroke-linecap: butt; stroke-linejoin: miter; stroke-miterlimit: 10; fill: rgb(0,0,0); fill-rule: nonzero; opacity: 1;" transform=" matrix(1 0 0 1 0 0) " stroke-linecap="round" />
</g>
</svg>